<?xml version="1.0" encoding="utf-8"?>
<!-- Generator: Adobe Illustrator 24.1.1, SVG Export Plug-In . SVG Version: 6.00 Build 0)  -->
<svg version="1.1" id="Ebene_1" xmlns="http://www.w3.org/2000/svg" xmlns:xlink="http://www.w3.org/1999/xlink" x="0px" y="0px"
	 width="450px" height="99px" viewBox="0 0 450 99" style="enable-background:new 0 0 450 99;" xml:space="preserve">
<style type="text/css">
	.st0{fill:#004D9E;}
	.st1{fill:#A4A5A5;}
	.st2{fill:#6E6E6E;}
</style>
<g id="Pfad">
	<path class="st0" d="M370.516,0.115c39.627,0.866,68.906,11.077,72.021,26.952c4.941,25.155-54.048,57.528-127.73,71.384
		c80.85-15.202,139.839-47.582,134.905-72.73C446.597,9.846,417.325-0.365,370.516,0.115L370.516,0.115z"/>
	<path class="st0" d="M370.516,0.115c39.627,0.866,68.906,11.077,72.021,26.952c4.941,25.155-54.048,57.528-127.73,71.384
		c80.85-15.202,139.839-47.582,134.905-72.73C446.597,9.846,417.325-0.365,370.516,0.115L370.516,0.115z"/>
	<path class="st0" d="M114.161,47.954v5.084h-11.042V0.007h11.042v19.684c2.685-3.63,6.394-6.323,12.13-6.323
		c9.08,0,17.73,7.161,17.73,20.128v0.143c0,13.004-8.5,20.121-17.73,20.121C120.405,53.761,116.774,51.076,114.161,47.954z
		 M132.979,33.633V33.49c0-6.445-4.361-10.741-9.516-10.741s-9.445,4.296-9.445,10.741v0.143c0,6.445,4.296,10.741,9.445,10.741
		c5.148,0,9.516-4.196,9.516-10.734V33.633z"/>
	<path class="st0" d="M147.944,33.784V33.64c0-11.185,9.008-20.272,21.138-20.272s20.995,8.936,20.995,20.128v0.143
		c0,11.185-9.008,20.272-21.138,20.272C156.809,53.912,147.944,44.975,147.944,33.784z M179.179,33.784V33.64
		c0-5.728-4.139-10.741-10.24-10.741c-6.323,0-10.104,4.869-10.104,10.612v0.143c0,5.728,4.146,10.741,10.247,10.741
		C175.405,44.395,179.179,39.526,179.179,33.784z"/>
	<path class="st0" d="M193.5,47.883l4.719-7.268c4.218,3.05,8.65,4.647,12.28,4.647c3.194,0,4.647-1.16,4.647-2.907v-0.143
		c0-2.399-3.774-3.194-8.063-4.504c-5.449-1.597-11.622-4.139-11.622-11.693v-0.15c0-7.877,6.387-12.345,14.235-12.345
		c5.175,0.073,10.22,1.637,14.529,4.504l-4.232,7.626c-3.852-2.256-7.705-3.63-10.533-3.63c-2.692,0-4.067,1.16-4.067,2.685v0.143
		c0,2.184,3.702,3.201,7.92,4.654c5.442,1.812,11.765,4.432,11.765,11.55v0.143c0,8.643-6.445,12.567-14.894,12.567
		C204.124,53.711,198.253,51.642,193.5,47.883z"/>
	<path class="st0" d="M228.873,47.883l4.726-7.268c4.218,3.05,8.65,4.647,12.28,4.647c3.194,0,4.647-1.16,4.647-2.907v-0.143
		c0-2.399-3.774-3.194-8.063-4.504c-5.449-1.597-11.622-4.139-11.622-11.693v-0.15c0-7.877,6.394-12.345,14.235-12.345
		c5.175,0.073,10.22,1.637,14.529,4.504l-4.21,7.626c-3.852-2.256-7.705-3.63-10.533-3.63c-2.692,0-4.067,1.16-4.067,2.685v0.143
		c0,2.184,3.702,3.201,7.92,4.654c5.442,1.812,11.765,4.432,11.765,11.55v0.143c0,8.643-6.445,12.567-14.894,12.567
		C239.516,53.717,233.634,51.648,228.873,47.883z"/>
	<path class="st1" d="M376.094,30.182c0,11.128-6.552,18.66-13.734,18.66c-5.728,0-8.027-3.101-8.027-8.872
		c0-9.509,5.564-18.453,13.806-18.453C373.559,21.517,376.094,24.618,376.094,30.182L376.094,30.182z M381.658,29.688
		c0-7.397-3.874-12.603-12.746-12.603c-11.457,0-19.999,10.139-19.999,23.866c0,8.027,4.082,12.395,12.531,12.395
		c10.354,0,20.214-9.223,20.214-23.63V29.688z M320.457,29c1.432-7.468-0.917-11.972-7.254-11.972
		c-7.605,0-13.383,7.812-16.763,15.703l-0.136-0.072c1.674-4.898,3.084-9.881,4.225-14.93c-3.788-0.122-7.579,0.043-11.342,0.494
		l-0.559,3.029c2.041,0.143,4.361,0.422,5.915,0.716l-0.072,0.215l-5.843,30.561h5.206l1.346-7.497
		c1.69-8.872,9.23-23.73,16.412-23.73c3.516,0,4.576,2.678,3.444,8.664l-4.296,22.534h5.134L320.457,29z M281.131,17.73
		c-3.785-0.124-7.575,0.042-11.335,0.494l-0.559,3.029c2.041,0.143,4.361,0.422,5.915,0.716l-0.072,0.215l-5.843,30.561h5.206
		L281.131,17.73z M283.995,7.447c-0.062-1.817-1.562-3.253-3.38-3.237c-2.143,0.042-3.846,1.814-3.804,3.957
		c0,0.02,0.001,0.04,0.002,0.06c0.035,1.783,1.509,3.2,3.292,3.165c0.005,0,0.011,0,0.016,0c2.116,0.025,3.851-1.67,3.875-3.786
		C283.997,7.553,283.997,7.5,283.995,7.447L283.995,7.447z"/>
	<path class="st1" d="M357.183,0.623c-1.911-0.409-3.86-0.618-5.814-0.623c-8.593,0-13.605,4.719-15.367,14.164l-0.48,2.642h-7.34
		l-0.823,4.089h7.397l-6.223,32.502c-1.676,8.528-4.654,11.385-9.917,11.385c-1.759,0.001-3.508-0.257-5.191-0.766l-1.31,4.518
		c1.965,0.42,3.97,0.626,5.979,0.616c8.242,0,13.433-4.518,15.589-15.896l6.158-32.373h9.896l0.831-4.096h-9.996l0.494-2.635
		c1.232-6.939,4.296-9.925,9.617-9.925c1.755,0.018,3.499,0.276,5.184,0.766L357.183,0.623z"/>
	<path class="st2" d="M3.745,86.686l-0.544,2.37H0l4.762-19.641h3.237l-1.683,6.939c1.139-1.224,2.342-2.069,3.917-2.069
		c2.506,0,4.518,2.069,4.518,5.822c0.047,2.692-0.937,5.299-2.75,7.289c-1.13,1.17-2.671,1.853-4.296,1.905
		C5.971,89.332,4.397,88.293,3.745,86.686z M9.473,85.547c1.267-1.419,1.948-3.267,1.905-5.17c0-2.069-0.924-3.344-2.556-3.344
		c-0.93,0.017-1.813,0.41-2.449,1.088c-1.229,1.418-1.897,3.236-1.876,5.113c0,2.041,1.088,3.323,2.692,3.323
		c0.883-0.004,1.727-0.369,2.334-1.01L9.473,85.547z"/>
	<path class="st2" d="M19.835,82.962v0.215c0,2.148,1.06,3.537,2.864,3.537c1.143-0.017,2.242-0.441,3.101-1.196l1.432,2.205
		c-1.325,1.046-2.966,1.612-4.654,1.604c-3.58,0-5.771-2.37-5.771-6.151c-0.003-2.54,0.971-4.983,2.721-6.824
		c1.245-1.318,2.977-2.066,4.79-2.069c3.072,0,4.977,2.205,4.977,5.335c-0.01,1.143-0.221,2.274-0.623,3.344L19.835,82.962z
		 M20.164,80.814h5.986c0.122-0.452,0.175-0.921,0.158-1.389c0-1.432-0.716-2.535-2.198-2.535c-0.912,0.014-1.778,0.399-2.399,1.067
		c-0.748,0.818-1.28,1.81-1.547,2.886V80.814z"/>
	<path class="st2" d="M40.486,86.686l-0.544,2.37h-3.208l4.762-19.641h3.237l-1.69,6.939c1.146-1.224,2.342-2.069,3.924-2.069
		c2.499,0,4.511,2.069,4.511,5.822c0.049,2.691-0.932,5.298-2.742,7.289c-1.139,1.177-2.694,1.861-4.332,1.905
		C42.686,89.31,41.135,88.275,40.486,86.686z M46.257,85.547c1.265-1.421,1.945-3.268,1.905-5.17c0-2.069-0.924-3.344-2.556-3.344
		c-0.93,0.014-1.815,0.407-2.449,1.088c-1.234,1.415-1.904,3.235-1.883,5.113c0,2.041,1.088,3.323,2.7,3.323
		C44.839,86.539,45.662,86.176,46.257,85.547L46.257,85.547z"/>
	<path class="st2" d="M66.758,80.485c0.021,2.527-0.936,4.964-2.671,6.803c-1.242,1.319-2.972,2.067-4.783,2.069
		c-3.509,0-5.728-2.535-5.728-6.18c-0.033-2.535,0.922-4.982,2.664-6.824c1.243-1.321,2.977-2.069,4.79-2.069
		C64.524,74.284,66.758,76.783,66.758,80.485z M61.746,85.547c1.192-1.398,1.847-3.175,1.847-5.012c0-2.291-1.088-3.487-2.721-3.487
		c-0.864,0.027-1.683,0.389-2.284,1.01c-1.202,1.378-1.859,3.148-1.847,4.977c0,2.284,1.088,3.487,2.721,3.487
		C60.322,86.511,61.143,86.161,61.746,85.547L61.746,85.547z"/>
	<path class="st2" d="M67.145,86.686l1.933-1.955c1.303,1.432,2.499,2.091,3.723,2.091c0.969,0.083,1.821-0.635,1.905-1.604
		c0-0.816-0.544-1.332-2.205-2.42c-1.983-1.275-2.964-2.363-2.964-4.11c0-2.306,1.905-4.346,5.012-4.346
		c1.863,0.032,3.636,0.805,4.926,2.148l-1.797,2.098c-1.275-1.253-2.227-1.797-3.287-1.797c-0.887-0.072-1.664,0.588-1.737,1.475
		c-0.001,0.017-0.002,0.034-0.003,0.05c0,0.788,0.487,1.253,2.198,2.342c2.234,1.432,2.993,2.664,2.993,4.218
		c0,2.47-2.148,4.432-5.084,4.432C70.594,89.294,68.544,88.336,67.145,86.686z"/>
	<path class="st2" d="M79.196,86.686l1.933-1.955c1.303,1.432,2.499,2.091,3.723,2.091c0.965,0.086,1.817-0.626,1.904-1.591
		c0-0.004,0.001-0.009,0.001-0.013c0-0.816-0.544-1.332-2.198-2.42c-1.991-1.275-2.964-2.363-2.964-4.11
		c0-2.306,1.898-4.346,4.977-4.346c1.862,0.033,3.635,0.806,4.926,2.148l-1.826,2.12c-1.282-1.253-2.234-1.797-3.294-1.797
		c-0.887-0.072-1.664,0.588-1.737,1.475c-0.001,0.017-0.002,0.034-0.003,0.05c0,0.788,0.487,1.253,2.205,2.342
		c2.227,1.432,2.993,2.664,2.993,4.218c0,2.47-2.148,4.432-5.091,4.432C82.6,89.291,80.577,88.327,79.196,86.686z"/>
	<path class="st2" d="M101.845,74.556h3.208l-3.537,14.5h-3.251L101.845,74.556z M103.012,69.386h3.43l-0.845,3.158h-3.401
		L103.012,69.386z"/>
	<path class="st2" d="M108.747,74.556h3.208l-0.38,1.683c0.907-1.181,2.293-1.897,3.781-1.955c2.148,0,3.616,1.432,3.616,3.809
		c-0.049,0.919-0.192,1.831-0.43,2.721l-1.962,8.242h-3.28l2.012-8.299c0.154-0.548,0.236-1.114,0.243-1.683
		c0.106-0.919-0.553-1.751-1.472-1.857c-0.134-0.016-0.27-0.015-0.404,0.002c-1.518,0-2.742,1.36-3.151,3.158l-2.148,8.679h-3.172
		L108.747,74.556z"/>
	<path class="st2" d="M128.99,74.556h3.294l0.544,10.633l5.277-10.633h3.451l-8.027,14.744c-1.518,2.807-2.864,3.917-4.869,3.917
		c-1.111,0.007-2.185-0.399-3.015-1.139l1.547-2.205c0.419,0.364,0.944,0.582,1.497,0.623c0.601,0,1.088-0.38,1.69-1.361
		L128.99,74.556z"/>
	<path class="st2" d="M154.224,80.485c0.023,2.526-0.931,4.964-2.664,6.803c-1.245,1.318-2.977,2.066-4.79,2.069
		c-3.509,0-5.728-2.535-5.728-6.18c-0.034-2.536,0.925-4.985,2.671-6.824c1.24-1.322,2.971-2.071,4.783-2.069
		C152.019,74.284,154.224,76.783,154.224,80.485z M149.212,85.547c1.192-1.398,1.847-3.175,1.847-5.012
		c0-2.291-1.088-3.487-2.714-3.487c-0.866,0.027-1.687,0.389-2.291,1.01c-1.202,1.378-1.858,3.148-1.847,4.977
		c0,2.284,1.088,3.487,2.721,3.487c0.863-0.005,1.689-0.355,2.291-0.974L149.212,85.547z"/>
	<path class="st2" d="M156.265,85.519c0.04-0.919,0.177-1.831,0.408-2.721l1.983-8.242h3.237l-2.048,8.27
		c-0.137,0.554-0.218,1.12-0.243,1.69c-0.109,0.927,0.554,1.767,1.48,1.876c0.131,0.015,0.264,0.015,0.396,0
		c1.525,0,2.778-1.36,3.158-3.158l2.148-8.679h3.237l-3.537,14.5h-3.237l0.408-1.69c-0.912,1.177-2.294,1.894-3.781,1.962
		C157.697,89.328,156.265,87.91,156.265,85.519z"/>
	<path class="st2" d="M173.737,74.556h3.208l-0.63,2.614c1.224-1.855,2.692-3.022,4.891-2.864l-0.895,3.373h-0.193
		c-2.442,0-4.296,1.389-5.113,4.733l-1.604,6.638h-3.208L173.737,74.556z"/>
	<path class="st2" d="M190.442,86.686l-0.523,2.37h-3.215l4.762-19.641h3.237l-1.683,6.939c1.139-1.224,2.341-2.069,3.917-2.069
		c2.506,0,4.518,2.069,4.518,5.822c0.047,2.692-0.937,5.299-2.75,7.289c-1.13,1.17-2.671,1.853-4.296,1.905
		C192.674,89.333,191.097,88.294,190.442,86.686z M196.171,85.547c1.267-1.419,1.948-3.267,1.905-5.17
		c0-2.069-0.924-3.344-2.556-3.344c-0.93,0.017-1.813,0.41-2.449,1.088c-1.229,1.418-1.897,3.236-1.876,5.113
		c0,2.041,1.088,3.323,2.692,3.323c0.878-0.008,1.716-0.372,2.32-1.01L196.171,85.547z"/>
	<path class="st2" d="M203.439,85.519c0.04-0.919,0.177-1.831,0.408-2.721l1.991-8.242h3.237l-2.012,8.27
		c-0.137,0.554-0.218,1.12-0.243,1.69c-0.109,0.927,0.554,1.767,1.48,1.876c0.131,0.015,0.264,0.015,0.396,0
		c1.525,0,2.771-1.36,3.151-3.158l2.148-8.679h3.237l-3.537,14.5h-3.237l0.408-1.69c-0.912,1.177-2.294,1.894-3.781,1.962
		C204.885,89.328,203.439,87.91,203.439,85.519z"/>
	<path class="st2" d="M216.8,86.686l1.933-1.955c1.303,1.432,2.506,2.091,3.723,2.091c0.965,0.086,1.817-0.626,1.904-1.591
		c0-0.004,0.001-0.009,0.001-0.013c0-0.816-0.544-1.332-2.198-2.42c-1.991-1.275-2.964-2.363-2.964-4.11
		c0-2.306,1.905-4.346,4.977-4.346c1.862,0.033,3.635,0.806,4.926,2.148l-1.797,2.098c-1.282-1.253-2.234-1.797-3.294-1.797
		c-0.887-0.072-1.664,0.588-1.737,1.475c-0.001,0.017-0.002,0.034-0.003,0.05c0,0.788,0.487,1.253,2.205,2.342
		c2.227,1.432,2.993,2.664,2.993,4.218c0,2.47-2.148,4.432-5.091,4.432C220.227,89.283,218.192,88.327,216.8,86.686z"/>
	<path class="st2" d="M232.797,74.556h3.208l-3.537,14.5h-3.237L232.797,74.556z M233.964,69.386h3.43l-0.845,3.158h-3.401
		L233.964,69.386z"/>
	<path class="st2" d="M239.743,74.556h3.215l-0.387,1.683c0.907-1.181,2.293-1.897,3.781-1.955c2.148,0,3.623,1.432,3.623,3.809
		c-0.051,0.92-0.198,1.831-0.437,2.721l-1.962,8.242h-3.237l2.019-8.299c0.15-0.549,0.232-1.114,0.243-1.683
		c0.106-0.919-0.553-1.751-1.472-1.857c-0.134-0.016-0.27-0.015-0.404,0.002c-1.525,0-2.75,1.36-3.158,3.158l-2.148,8.679h-3.215
		L239.743,74.556z"/>
	<path class="st2" d="M254.966,82.962v0.215c0,2.148,1.06,3.537,2.864,3.537c1.143-0.017,2.242-0.441,3.1-1.196l1.432,2.205
		c-1.322,1.047-2.961,1.613-4.647,1.604c-3.58,0-5.771-2.37-5.771-6.151c-0.007-2.54,0.968-4.985,2.721-6.824
		c1.245-1.318,2.977-2.066,4.79-2.069c3.072,0,4.977,2.205,4.977,5.335c-0.01,1.143-0.221,2.274-0.623,3.344L254.966,82.962z
		 M255.288,80.814h5.986c0.125-0.452,0.18-0.92,0.165-1.389c0-1.432-0.716-2.535-2.205-2.535c-0.909,0.016-1.773,0.401-2.392,1.067
		c-0.748,0.819-1.282,1.81-1.554,2.886V80.814z"/>
	<path class="st2" d="M264.733,86.686l1.933-1.955c1.303,1.432,2.499,2.091,3.723,2.091c0.969,0.083,1.821-0.635,1.905-1.604
		c0-0.816-0.544-1.332-2.205-2.42c-1.983-1.275-2.964-2.363-2.964-4.11c0-2.306,1.905-4.346,4.977-4.346
		c1.863,0.032,3.636,0.805,4.926,2.148l-1.797,2.098c-1.275-1.253-2.227-1.797-3.287-1.797c-0.891-0.072-1.672,0.591-1.744,1.482
		c-0.001,0.014-0.002,0.029-0.003,0.044c0,0.788,0.494,1.253,2.205,2.342c2.234,1.432,2.993,2.664,2.993,4.218
		c0,2.47-2.148,4.432-5.084,4.432C268.16,89.283,266.124,88.327,264.733,86.686z"/>
	<path class="st2" d="M276.784,86.686l1.933-1.955c1.303,1.432,2.499,2.091,3.723,2.091c0.965,0.086,1.817-0.626,1.904-1.591
		c0-0.004,0.001-0.009,0.001-0.013c0-0.816-0.544-1.332-2.198-2.42c-1.991-1.275-2.972-2.363-2.972-4.11
		c0-2.306,1.905-4.346,5.012-4.346c1.861,0.032,3.631,0.805,4.919,2.148l-1.79,2.098c-1.282-1.253-2.234-1.797-3.294-1.797
		c-0.887-0.072-1.664,0.588-1.737,1.475c-0.001,0.017-0.002,0.034-0.003,0.05c0,0.788,0.487,1.253,2.205,2.342
		c2.227,1.432,2.986,2.664,2.986,4.218c0,2.47-2.148,4.432-5.084,4.432C280.23,89.291,278.182,88.334,276.784,86.686z"/>
</g>
</svg>
